<?xml version="1.0" standalone="no"?>
<!DOCTYPE svg PUBLIC "-//W3C//DTD SVG 20010904//EN"
 "http://www.w3.org/TR/2001/REC-SVG-20010904/DTD/svg10.dtd">
<svg version="1.0" xmlns="http://www.w3.org/2000/svg"
 width="220.000000pt" height="220.000000pt" viewBox="0 0 220.000000 220.000000"
 preserveAspectRatio="xMidYMid meet">
<metadata>
Created by potrace 1.11, written by Peter Selinger 2001-2013
</metadata>
<g transform="translate(0.000000,220.000000) scale(0.100000,-0.100000)"
fill="#000000" stroke="none">
<path d="M865 1929 c-5 -15 -10 -18 -18 -10 -6 6 -21 11 -34 11 -27 0 -40 -38
-24 -68 6 -12 11 -28 11 -37 0 -18 -25 -47 -33 -39 -3 3 -12 -3 -19 -15 -8
-14 -23 -21 -44 -21 -40 0 -62 -26 -57 -69 4 -44 5 -44 39 -26 33 17 71 21 42
4 -10 -5 -23 -19 -28 -30 -10 -18 -8 -19 58 -18 105 2 162 -42 162 -124 0 -34
-24 -65 -63 -81 -9 -3 -8 -7 3 -15 13 -9 13 -11 0 -15 -8 -3 -26 -6 -39 -8
-34 -4 -36 -21 -6 -56 l25 -30 -23 -14 c-25 -17 -51 -16 -72 2 -20 17 -19 35
7 79 29 50 20 79 -44 138 -133 124 -196 196 -241 271 -43 73 -86 122 -108 122
-4 0 -15 -7 -23 -16 -21 -20 -14 -60 25 -144 l30 -65 -42 43 c-58 59 -96 55
-91 -12 2 -16 11 -40 21 -55 31 -46 31 -47 -5 -43 -60 7 -56 -40 9 -99 l32
-28 -31 -1 c-74 0 -65 -73 11 -95 l40 -11 -36 -7 c-85 -17 -33 -102 54 -88 17
3 5 -17 -19 -29 -14 -8 -30 -23 -36 -34 -9 -16 -6 -23 13 -39 13 -11 33 -17
46 -14 27 5 27 4 11 -23 -20 -32 1 -56 46 -53 34 3 35 2 24 -17 -10 -15 -10
-25 -2 -38 15 -23 38 -26 73 -9 l29 15 -5 -34 c-5 -32 -4 -34 24 -34 16 0 38
7 49 15 26 20 30 19 29 -11 0 -36 24 -38 69 -8 20 14 33 19 31 12 -3 -7 -1
-19 4 -27 15 -23 59 -4 117 51 46 43 55 48 60 33 11 -28 -7 -47 -84 -89 -86
-47 -103 -76 -110 -191 l-5 -79 26 17 c32 21 37 21 37 3 0 -8 6 -16 13 -19 28
-10 -7 -19 -85 -22 -46 -1 -94 -6 -108 -9 -21 -6 -30 -1 -48 23 -12 17 -27 42
-32 56 -5 14 -14 25 -20 25 -5 0 -19 18 -30 39 -11 22 -41 70 -67 108 -38 54
-48 76 -48 108 0 38 -2 41 -42 55 -23 8 -45 11 -49 8 -3 -4 -9 -27 -11 -52
l-5 -45 36 -7 c30 -5 41 -14 58 -48 11 -22 43 -74 69 -114 27 -40 49 -77 49
-82 0 -5 6 -13 13 -17 7 -4 23 -25 35 -47 21 -35 21 -40 7 -56 -19 -21 -19
-46 0 -54 8 -3 15 -12 15 -20 0 -19 27 -28 50 -16 14 8 23 3 43 -23 13 -18 26
-41 28 -52 3 -11 12 -21 22 -23 22 -5 35 27 16 42 -15 11 -59 78 -59 90 0 3
19 18 42 32 32 20 57 27 111 30 78 4 99 15 94 53 -2 14 2 37 10 51 7 14 13 32
13 40 0 40 55 54 83 22 27 -30 21 -67 -15 -99 -82 -71 -168 -165 -174 -190 -6
-20 -2 -30 16 -45 29 -23 33 -23 70 8 l31 26 -12 -25 c-30 -65 23 -107 72 -57
29 29 33 28 30 -1 -3 -28 36 -52 85 -52 57 1 87 26 82 65 l-5 28 33 -35 c36
-39 46 -42 68 -19 19 18 20 47 5 77 l-12 22 24 -21 c35 -31 64 -38 83 -19 9 9
16 25 16 35 0 25 -68 109 -126 157 -80 65 -85 72 -82 106 2 22 11 36 30 47 36
19 60 5 69 -39 4 -18 12 -38 18 -44 6 -6 11 -24 11 -39 0 -33 4 -35 85 -41 33
-2 77 -12 98 -20 33 -14 37 -20 37 -51 0 -27 -4 -36 -17 -37 -21 -1 -46 -5
-81 -14 -24 -6 -25 -7 -18 -83 3 -42 8 -88 10 -102 3 -14 7 -45 10 -69 3 -24
11 -50 18 -58 12 -15 7 -15 223 12 61 7 135 16 165 20 90 10 109 15 115 36 6
17 1 81 -10 149 -2 14 -7 48 -10 75 -8 70 -27 85 -93 76 -29 -4 -54 -5 -57 -3
-3 3 -5 17 -5 31 -1 42 -23 63 -70 64 -24 1 -45 8 -50 17 -9 13 -11 13 -20 0
-5 -8 -11 -19 -13 -24 -6 -18 -27 5 -27 31 0 19 -4 24 -16 19 -9 -3 -18 -6
-20 -6 -2 0 -4 -7 -4 -15 0 -14 -11 -15 -77 -9 -43 4 -85 10 -93 15 -10 5 -11
8 -2 9 6 0 12 7 12 15 0 19 14 19 30 0 24 -29 33 -4 27 77 -8 102 -24 128
-110 175 -76 41 -94 60 -83 88 5 15 14 10 60 -33 53 -51 94 -70 116 -57 7 4 9
16 7 27 -5 18 -4 18 16 4 57 -42 92 -42 84 0 -5 28 0 29 27 9 24 -18 73 -20
79 -2 2 6 0 21 -6 31 -8 16 -7 18 9 12 69 -27 107 -9 85 40 -11 25 -10 26 14
20 51 -13 83 27 50 64 -13 15 -12 16 16 14 30 -2 69 24 69 45 0 12 -54 51 -72
51 -25 0 15 20 42 20 32 1 60 22 65 49 3 17 -4 23 -37 33 l-40 12 38 11 c75
21 83 95 10 95 l-31 0 31 28 c66 58 70 109 9 99 l-36 -6 19 27 c43 62 45 132
3 132 -10 0 -37 -19 -60 -42 l-42 -43 30 65 c38 85 45 125 25 145 -9 8 -21 15
-29 15 -18 0 -60 -52 -120 -146 -47 -75 -105 -139 -222 -247 -67 -61 -73 -84
-39 -146 l26 -48 -23 -20 c-24 -23 -52 -22 -75 1 -14 14 -14 17 0 33 20 24 29
51 19 57 -5 3 -22 7 -39 8 -21 1 -28 6 -22 12 14 14 12 26 -3 26 -24 0 -57 45
-57 78 0 78 57 125 147 123 30 0 59 -3 63 -6 22 -14 18 18 -5 39 l-26 24 25
-2 c14 -2 32 -9 40 -15 16 -13 23 -6 30 31 6 36 -19 68 -53 68 -16 0 -34 7
-41 15 -7 8 -18 15 -25 15 -6 0 -18 11 -25 25 -10 19 -11 30 -2 50 25 55 2 92
-45 74 -14 -5 -25 -4 -29 3 -5 8 -10 7 -18 -3 -6 -8 -17 -14 -23 -15 -7 -1
-20 -2 -28 -2 -21 -3 -19 -39 5 -76 12 -20 17 -41 13 -55 -5 -21 -10 -22 -54
-19 -55 5 -60 -2 -25 -30 l25 -19 -34 -33 c-19 -19 -44 -57 -56 -86 l-22 -53
-27 58 c-15 31 -42 69 -60 84 l-32 27 26 21 c14 11 26 23 26 27 0 4 -24 5 -52
3 -29 -1 -50 0 -46 5 4 4 3 13 -4 21 -9 11 -6 20 10 43 30 40 29 80 0 81 -13
1 -28 1 -35 0 -7 -1 -10 7 -8 19 5 27 -12 26 -20 -1z m-462 -101 c13 -18 41
-62 62 -98 24 -41 82 -108 154 -180 156 -154 147 -139 117 -197 -32 -58 -32
-67 -4 -93 30 -28 73 -26 104 5 l26 26 -26 26 c-15 14 -24 28 -22 31 3 2 22 6
43 9 46 6 49 9 34 27 -10 11 -8 17 7 28 69 49 36 179 -53 208 -20 7 -56 10
-81 8 -56 -4 -58 10 -2 18 38 7 40 8 22 21 -13 10 -36 13 -69 11 -47 -4 -51
-3 -53 18 -2 28 9 36 54 36 22 0 34 5 34 13 0 23 17 26 77 12 32 -7 77 -12
101 -11 46 1 51 -2 26 -21 -14 -10 -12 -15 23 -43 36 -28 69 -85 97 -166 9
-26 19 -12 42 54 13 39 34 69 68 103 46 44 48 48 28 54 -39 10 -24 19 31 19
28 0 66 3 82 7 77 18 84 18 95 -3 7 -13 18 -19 33 -16 32 5 57 -11 57 -38 0
-21 -3 -22 -52 -19 -38 3 -59 0 -73 -11 -20 -15 -19 -15 6 -16 14 0 33 -6 42
-13 15 -10 11 -12 -27 -9 -90 8 -156 -39 -171 -119 -8 -41 5 -73 39 -100 19
-16 20 -18 4 -24 -26 -10 -11 -25 25 -25 54 0 64 -14 34 -43 l-27 -24 26 -27
c32 -31 76 -34 104 -6 26 26 25 46 -4 93 -13 21 -22 47 -19 57 3 10 53 63 112
118 70 66 126 128 159 179 90 137 103 154 121 151 43 -9 -9 -150 -89 -240 -67
-77 -22 -57 71 31 70 66 86 77 98 66 20 -20 -1 -71 -54 -132 -25 -28 -45 -54
-45 -58 0 -4 16 3 35 15 19 12 48 25 65 30 25 7 30 6 30 -9 0 -30 -117 -121
-155 -121 -8 0 -15 -4 -15 -10 0 -13 9 -13 56 3 36 11 49 13 97 8 10 0 17 -9
17 -21 0 -24 -18 -34 -90 -50 -113 -25 -115 -30 -15 -36 72 -4 85 -8 85 -29 0
-19 -54 -35 -116 -35 -30 0 -54 -3 -54 -8 0 -4 21 -15 48 -25 61 -22 86 -42
79 -62 -9 -21 -53 -19 -106 5 -24 11 -47 17 -50 14 -3 -4 1 -9 9 -12 25 -9 92
-81 85 -92 -10 -17 -48 -11 -98 15 -56 30 -60 22 -12 -25 72 -70 23 -98 -60
-34 -26 19 -49 33 -52 31 -2 -3 10 -26 28 -51 56 -79 -2 -85 -75 -7 -38 39
-51 40 -31 1 8 -16 20 -41 25 -55 16 -42 -17 -31 -71 23 -27 27 -51 47 -53 45
-2 -3 2 -20 10 -38 33 -80 1 -80 -81 1 -56 55 -78 61 -91 22 -10 -34 14 -63
84 -100 93 -49 107 -71 115 -181 4 -48 -6 -54 -32 -21 -21 27 -25 23 -24 -23
1 -25 -18 -13 -32 19 l-14 33 -7 -33 c-7 -35 -27 -39 -32 -6 -7 46 -24 72 -50
77 -47 9 -78 -16 -88 -72 -4 -22 22 -66 51 -85 43 -28 145 -138 151 -162 7
-27 -2 -44 -22 -44 -19 0 -82 66 -130 136 -37 53 -73 79 -40 29 28 -42 70
-118 88 -156 14 -31 14 -40 4 -55 -30 -40 -68 16 -103 148 -10 38 -21 68 -25
68 -10 0 -11 9 7 -83 21 -112 20 -154 -6 -167 -35 -19 -34 -23 -38 173 0 38
-5 66 -9 63 -5 -3 -7 -57 -5 -120 3 -120 -1 -135 -37 -116 -25 13 -26 73 -5
170 17 79 17 80 5 80 -5 0 -10 -7 -10 -14 0 -29 -51 -174 -68 -196 -22 -27
-52 -18 -52 16 0 13 8 38 19 56 38 68 63 108 67 108 2 0 -8 -30 -21 -67 -14
-37 -24 -74 -22 -83 1 -8 15 20 31 62 15 42 25 81 22 87 -4 6 -2 20 4 31 21
40 -6 18 -44 -34 -52 -73 -111 -136 -128 -136 -28 0 -38 21 -23 49 16 31 114
134 150 157 32 21 56 65 50 92 -6 31 -24 62 -38 63 -7 0 -23 2 -36 3 -29 3
-53 -23 -59 -61 -5 -41 -25 -48 -37 -12 l-10 30 -12 -31 c-12 -33 -30 -40 -30
-12 0 41 -4 44 -24 18 -29 -37 -37 -20 -28 55 9 75 29 104 97 139 96 49 122
89 82 125 -19 17 -21 16 -62 -27 -52 -55 -108 -87 -108 -63 0 9 6 31 14 50 21
49 8 51 -31 5 -44 -51 -71 -66 -87 -49 -8 9 -7 11 5 6 9 -3 22 2 30 11 71 85
82 121 14 47 l-46 -50 21 43 c24 50 15 54 -26 11 -47 -50 -73 -59 -37 -13 45
58 66 94 56 94 -5 0 -27 -25 -48 -55 -20 -30 -41 -55 -46 -55 -5 0 -6 -7 -3
-15 6 -15 -7 -21 -19 -9 -7 7 18 60 41 87 27 31 5 30 -35 -1 -41 -33 -87 -54
-97 -45 -14 15 -4 41 29 73 48 47 44 55 -12 25 -50 -26 -88 -32 -98 -15 -7 11
61 84 86 92 8 3 11 8 7 12 -3 4 -24 -2 -47 -13 -48 -25 -99 -27 -108 -6 -7 20
18 40 80 62 26 10 47 21 47 25 0 5 -24 8 -54 8 -62 0 -116 16 -116 35 0 21 15
26 86 30 36 1 67 5 70 8 6 6 -37 19 -106 32 -19 4 -43 11 -52 17 -19 9 -25 47
-8 49 40 5 61 4 100 -8 73 -21 79 -14 15 18 -69 35 -125 85 -125 112 0 22 23
17 88 -20 23 -14 42 -22 42 -18 0 4 -20 29 -44 56 -50 55 -73 109 -58 135 8
14 23 4 98 -65 97 -89 140 -109 74 -33 -46 51 -93 138 -105 189 -13 61 20 72
58 21z m447 -1194 c0 -21 -5 -24 -34 -24 -57 0 -136 -19 -166 -40 -34 -24 -40
-25 -40 -5 0 8 -4 15 -10 15 -5 0 -10 6 -10 14 0 17 44 26 134 26 74 0 104 10
92 29 -4 6 -4 16 -1 21 11 17 35 -9 35 -36z m518 2 c15 -9 71 -15 162 -19 24
-2 34 2 32 11 -1 8 2 11 8 7 17 -11 11 -23 -20 -39 -26 -13 -36 -13 -69 -1
-31 11 -106 23 -158 25 -15 0 -11 23 7 46 14 16 15 16 19 -2 2 -10 11 -23 19
-28z m266 -51 c-8 -19 -45 -29 -73 -20 -27 8 -16 28 13 22 11 -3 30 -1 41 3
11 5 21 9 22 9 1 1 0 -6 -3 -14z m52 -11 c-11 -8 -27 -14 -35 -14 -9 0 -3 8
14 19 34 21 50 17 21 -5z m65 -15 c4 -18 7 -35 5 -36 -1 -1 -24 -5 -51 -8 -28
-4 -76 -10 -107 -14 -32 -4 -59 -4 -59 1 -1 4 -1 15 -1 23 0 33 2 36 20 26 10
-5 43 -8 73 -6 42 4 58 10 74 29 26 32 38 28 46 -15z m-1207 5 c18 -7 12 -24
-10 -24 -8 0 -14 7 -14 15 0 17 2 18 24 9z m37 -49 c0 -5 -9 -11 -21 -13 -15
-3 -18 1 -14 13 7 17 35 17 35 0z"/>
<path d="M370 1804 c0 -20 111 -195 120 -189 4 3 -12 35 -36 72 -24 37 -50 80
-57 95 -10 25 -27 38 -27 22z"/>
<path d="M1773 1780 c-10 -17 -37 -60 -60 -95 -45 -68 -48 -99 -4 -37 42 58
94 153 87 159 -3 3 -13 -9 -23 -27z"/>
<path d="M775 1720 c-4 -6 6 -7 27 -3 44 8 48 13 10 13 -17 0 -34 -4 -37 -10z"/>
<path d="M1332 1725 c10 -10 68 -14 63 -4 -4 5 -20 9 -37 9 -17 0 -29 -2 -26
-5z"/>
<path d="M370 1598 c44 -41 76 -65 78 -58 3 7 -4 17 -14 23 -11 6 -41 32 -68
59 -27 26 -54 48 -60 48 -6 -1 23 -33 64 -72z"/>
<path d="M1826 1645 c-9 -14 -39 -43 -66 -64 -28 -22 -46 -42 -41 -45 9 -6
141 110 141 125 0 17 -18 9 -34 -16z"/>
<path d="M286 1543 c-13 -13 98 -75 159 -89 43 -10 20 9 -37 30 -26 10 -63 28
-82 41 -19 13 -37 21 -40 18z"/>
<path d="M1840 1524 c-19 -13 -55 -32 -80 -41 -59 -21 -76 -37 -30 -28 42 9
123 51 146 76 24 26 6 23 -36 -7z"/>
<path d="M286 1411 c11 -12 174 -44 182 -36 9 8 -1 13 -43 19 -38 5 -50 7
-120 22 -22 4 -27 3 -19 -5z"/>
<path d="M1830 1410 c-19 -5 -55 -12 -80 -15 -46 -6 -57 -11 -48 -20 7 -7 171
25 183 36 11 11 -5 10 -55 -1z"/>
<path d="M400 1309 c-52 -3 -93 -7 -90 -8 10 -7 156 -8 180 -1 43 11 7 15 -90
9z"/>
<path d="M1660 1309 c0 -11 -4 -11 102 -15 49 -2 90 1 93 6 4 6 -27 10 -77 11
-46 0 -91 2 -100 4 -10 2 -18 -1 -18 -6z"/>
<path d="M433 1229 c-46 -17 -83 -35 -83 -41 0 -6 8 -7 18 -3 9 4 47 18 85 32
37 14 67 29 67 34 0 5 -1 9 -2 8 -2 0 -40 -14 -85 -30z"/>
<path d="M1650 1252 c0 -5 30 -20 68 -34 95 -36 102 -38 102 -29 0 5 -35 21
-77 37 -43 16 -81 31 -85 32 -4 2 -8 0 -8 -6z"/>
<path d="M495 1164 c-33 -24 -66 -44 -72 -44 -14 0 -18 -20 -4 -20 11 0 129
78 137 91 14 23 -4 15 -61 -27z"/>
<path d="M1611 1200 c6 -20 126 -100 147 -99 15 0 15 2 -2 12 -51 33 -103 68
-125 84 -19 14 -23 15 -20 3z"/>
<path d="M538 1092 c-36 -31 -62 -59 -57 -60 14 -5 139 98 139 115 0 10 -22
-5 -82 -55z"/>
<path d="M1550 1144 c0 -16 122 -114 141 -114 10 1 10 4 -2 13 -33 25 -103 82
-115 95 -14 13 -24 16 -24 6z"/>
<path d="M1517 1069 c24 -41 82 -103 90 -95 3 3 -10 23 -30 45 -19 22 -40 49
-47 60 -6 12 -15 21 -21 21 -6 0 -2 -14 8 -31z"/>
<path d="M806 1014 c-21 -31 -35 -58 -32 -61 6 -6 75 88 76 105 0 20 -5 15
-44 -44z"/>
<path d="M1320 1059 c0 -15 71 -111 78 -105 4 5 -67 116 -75 116 -1 0 -3 -5
-3 -11z"/>
<path d="M1430 1049 c1 -8 19 -34 40 -58 22 -24 40 -37 40 -30 -1 8 -19 34
-40 58 -22 24 -40 37 -40 30z"/>
<path d="M898 539 c-27 -32 -48 -64 -48 -71 0 -7 11 1 25 17 72 86 85 104 78
108 -5 2 -29 -22 -55 -54z"/>
<path d="M1221 573 c8 -10 31 -37 52 -59 21 -23 45 -50 52 -60 9 -12 14 -14
15 -6 0 16 -109 142 -123 142 -5 0 -3 -8 4 -17z"/>
<path d="M1169 518 c25 -62 59 -129 64 -121 7 11 -48 136 -62 141 -8 3 -8 -4
-2 -20z"/>
</g>
</svg>
